<svg width="24" height="24" viewBox="0 0 24 24" fill="none" xmlns="http://www.w3.org/2000/svg">
<path d="M12 2C6.5 2 2 6.5 2 12C2 17.5 6.5 22 12 22C17.5 22 22 17.5 22 12C22 6.5 17.5 2 12 2ZM17.5 12.5H8.4L12 16.8L11.5 17.3L6.5 12.3V11.8L11.5 6.8L12 7.3L8.4 11.6H17.5V12.5Z" fill="#052962" style="fill:#052962;fill:color(display-p3 0.0196 0.1608 0.3843);fill-opacity:1;"/>
<path d="M12 16.8L8.4 12.5H17.5V11.6H8.4L12 7.30005L11.5 6.80005L6.5 11.8V12.3L11.5 17.3L12 16.8Z" fill="white" style="fill:white;fill-opacity:1;"/>
</svg>
