<svg width="24" height="24" viewBox="0 0 24 24" fill="none" xmlns="http://www.w3.org/2000/svg">
<path d="M6.54863 7.24498L6.5468 7.24257L9.01811 5.36498C8.50322 4.68498 7.52343 4.55498 6.84357 5.06998C6.16451 5.58437 6.02905 6.55769 6.5468 7.24257L6.54363 7.24498H6.54863Z" fill="#052962"/>
<path d="M17.4413 7.24498L17.4432 7.24257L17.4463 7.24498H17.4413Z" fill="#052962"/>
<path d="M17.4432 7.24257L14.9719 5.36498C15.4867 4.68498 16.4665 4.55498 17.1464 5.06998C17.8255 5.58437 17.9609 6.55769 17.4432 7.24257Z" fill="#052962"/>
<path d="M21.1856 16.985C22.2204 15.655 22.8402 13.985 22.8402 12.17C22.8402 10.355 22.2204 8.68496 21.1856 7.35496L21.5505 6.98996C23.0452 8.21996 24 10.08 24 12.17C24 14.26 23.0452 16.12 21.5505 17.35L21.1856 16.985Z" fill="#052962"/>
<path d="M20.4657 12.18C20.4657 13.36 20.1058 14.46 19.4959 15.37L19.9858 15.86C20.9256 14.92 21.5105 13.62 21.5105 12.18C21.5105 10.74 20.9306 9.44497 19.9858 8.49997L19.4959 8.98997C20.1108 9.89997 20.4657 11 20.4657 12.18Z" fill="#052962"/>
<path d="M2.76442 16.905C1.74559 15.5962 1.13591 13.958 1.13476 12.175C1.13591 10.3919 1.75058 8.75374 2.76442 7.44496L2.4045 7.08496C0.934805 8.28996 0 10.125 0 12.175C0 14.225 0.934805 16.055 2.4045 17.265L2.76442 16.905Z" fill="#052962"/>
<path d="M3.52925 12.18C3.52925 13.36 3.88917 14.46 4.49905 15.37L4.00915 15.86C3.06934 14.92 2.48447 13.62 2.48447 12.18C2.48447 10.745 3.06435 9.44497 4.00915 8.49997L4.49905 8.98997C3.88417 9.89997 3.52925 11 3.52925 12.18Z" fill="#052962"/>
<path fill-rule="evenodd" clip-rule="evenodd" d="M12.0075 5.52496C8.42325 5.52496 5.52385 8.42996 5.52385 12.01C5.52385 13.5728 6.07736 15.007 6.99889 16.1271L5.75377 17.8L6.20867 18.255L7.87716 17.008C8.99902 17.9367 10.4384 18.495 12.0075 18.495C13.5456 18.495 14.959 17.9585 16.0709 17.0626L17.6663 18.255L18.1212 17.8L16.9396 16.2183C17.9069 15.0854 18.4911 13.6156 18.4911 12.01C18.4911 8.42996 15.5868 5.52496 12.0075 5.52496ZM16.2766 12.855L11.8875 13.295L11.0277 12.425L11.5376 7.09998H12.2124L12.6824 11.945L16.2766 12.18V12.855Z" fill="#052962"/>
</svg>
