<svg width="24" height="24" viewBox="0 0 24 24" fill="none" xmlns="http://www.w3.org/2000/svg">
<path fill-rule="evenodd" clip-rule="evenodd" d="M6.48003 2H17.49L18.2 2.71V7.68005H20.5701L22.0101 9.28005L22 9.28921V12.43L21.98 19.91V20.57L21.52 21.04L21.04 21.53L20.57 22H19.91L4.12 22.02H3.46L2.99 21.56L2.47 21.05L2 20.58V9.29005V9.28002L2.00665 9.28251L3.42 7.68005H5.78003V2.71L6.48003 2ZM5.78003 9.28005H4.14L3.6 9.88899V11.28L5.78003 12.6651V9.28005ZM7.08003 13.4911L11.69 16.42H12.23L16.9 13.4705V3.3H7.08003V13.4911ZM18.2 12.6495L20.4 11.26V9.87562L19.8601 9.28005H18.2V12.6495ZM15.4301 5.04004H8.56006V6.04004H15.4301V5.04004ZM20.41 12.44V19.92L19.91 20.41L4.12 20.43L3.6 19.92V12.45L11.17 18.04H12.76L20.4 12.44H20.41ZM8.56006 10.3199H15.4301V11.3199H8.56006V10.3199ZM15.4301 7.68005H8.56006V8.68005H15.4301V7.68005Z" fill="#052962"/>
</svg>
