<svg width="24" height="24" viewBox="0 0 24 24" fill="none" xmlns="http://www.w3.org/2000/svg">
<path fill-rule="evenodd" clip-rule="evenodd" d="M17 19.5042V15.875L18.25 14.6375H18.625V20.25L17.75 21.125H6.25L5.375 20.25V3.75002L6.25 2.87502L15.25 2.83752L18.625 6.25002V7.50002L17.5 8.62502H17V6.86251L14.625 4.50419H6.99999V19.5042H17ZM20.8083 7.50003L13.8833 14.425L15.0625 15.6042L21.9875 8.6792L21.6917 8.38336L21.1042 7.79584L20.8083 7.50003ZM12.7708 16.4584L13.0667 16.75L14.6625 16.0375L13.4833 14.8625L12.7708 16.4584ZM15.3208 9.50002H7.82083V10.75H15.3208V9.50002ZM13.2375 12.4167H7.82083V13.6667H13.2375V12.4167ZM7.82083 15.3334H11.5708V16.5834H7.82083V15.3334Z" fill="#052962"/>
</svg>
