<svg width="24" height="24" viewBox="0 0 24 24" fill="none" xmlns="http://www.w3.org/2000/svg">
<path fill-rule="evenodd" clip-rule="evenodd" d="M21.1667 12C21.1667 17.0626 17.0626 21.1667 12 21.1667C6.93739 21.1667 2.83333 17.0626 2.83333 12C2.83333 6.93739 6.93739 2.83333 12 2.83333C17.0626 2.83333 21.1667 6.93739 21.1667 12ZM22 12C22 17.5228 17.5228 22 12 22C6.47715 22 2 17.5228 2 12C2 6.47715 6.47715 2 12 2C17.5228 2 22 6.47715 22 12ZM12.0271 6.00143C15.0819 6.00143 17.5579 8.47743 17.5579 11.5296H17.5553C17.5553 12.199 17.4371 12.8406 17.2182 13.4345C17.427 13.8144 17.5453 14.2497 17.5453 14.7127V14.8964C17.5453 16.3709 16.345 17.5712 14.8705 17.5712H14.4905L13.713 16.7937L13.5696 16.6502V12.9589L14.4905 12.0379H14.8705C15.487 12.0379 16.0506 12.2493 16.5036 12.5991C16.5866 12.2568 16.6344 11.8995 16.6344 11.5296C16.6344 8.99075 14.566 6.92238 12.0271 6.92238C9.48823 6.92238 7.41987 8.99075 7.41987 11.5296C7.41987 11.9021 7.47019 12.2644 7.55323 12.6116C8.00867 12.2543 8.57986 12.0404 9.20138 12.0404H9.58133L10.5023 12.9614V16.6527L10.3538 16.8012L9.58133 17.5737H9.20138C7.72685 17.5737 6.52659 16.3734 6.52659 14.8989V14.7152C6.52659 14.2598 6.64234 13.8295 6.84364 13.4546C6.62221 12.8532 6.49892 12.2065 6.49892 11.5296C6.49892 8.47743 8.9724 6.00143 12.0271 6.00143ZM9.20138 12.9614C8.68051 12.9614 8.215 13.1904 7.89292 13.5502C7.63375 13.8421 7.47019 14.2195 7.45258 14.6347L7.45199 14.6411C7.44969 14.6663 7.44754 14.6897 7.44754 14.7152V14.8989C7.44754 15.8677 8.23262 16.6527 9.20138 16.6527H9.58133V12.9614H9.20138ZM16.6268 14.8964V14.7127L16.6243 14.7102C16.6243 14.6926 16.6231 14.6756 16.6218 14.6586C16.6206 14.6416 16.6193 14.6246 16.6193 14.607C16.5967 14.1944 16.4306 13.822 16.1689 13.5351C15.8493 13.1828 15.3889 12.9589 14.873 12.9589H14.4931V16.6502H14.873C15.8418 16.6502 16.6268 15.8652 16.6268 14.8964Z" fill="#052962"/>
</svg>
