<svg width="24" height="24" viewBox="0 0 24 24" fill="none" xmlns="http://www.w3.org/2000/svg">
<path fill-rule="evenodd" clip-rule="evenodd" d="M20.4265 3.48369L18.5856 1.88483L17.5567 3.14918L19.7302 4.25093L20.4265 3.48369ZM8.0723 2.45027L6.97177 1.99157L6.10355 4.0628L7.80139 4.21913L8.0723 2.45027ZM19.2642 16.4607L18.0567 17.5538L19.1441 18.7677L20.1007 17.3945L19.2642 16.4607ZM20.0082 10.211L22.3896 9.71038L22.5737 10.7323L20.3835 11.8003L20.0082 10.211ZM14.664 13.9102L14.7772 14.3789C14.8397 14.6563 14.871 15.0078 14.871 15.3438C14.7147 15.2982 14.3915 15.1804 14.1712 15.0816C13.234 14.6614 12.0349 13.8302 10.8565 12.6519C9.67818 11.4735 8.84696 10.2745 8.42682 9.3372C8.32804 9.11686 8.24208 8.8379 8.20302 8.62501C8.93739 8.69532 9.40614 8.82814 10.0332 9.07032L10.5018 8.06624C8.88501 7.07529 7.4653 6.76232 6.83485 7.39278C6.69665 7.53097 6.60378 7.7071 6.55345 7.91491L2.55225 20.2478L3.60055 21.2639L15.6667 16.9351C15.8429 16.8817 15.994 16.7952 16.1156 16.6736C16.6518 16.1373 16.5056 15.0302 15.8402 13.7164L14.664 13.9102ZM15.1258 7.46876C15.9271 6.73208 17.3195 6.67355 18.1752 7.52751C19.1829 8.53308 18.7508 9.94532 17.7586 10.9375C17.7586 10.9375 17.4903 10.7617 17.1895 10.4961C16.8887 10.2305 16.7039 10.0078 16.7039 10.0078C17.0832 9.66745 17.602 8.9752 17.1571 8.53126C16.9417 8.31634 16.493 8.12973 16.0854 8.46876C15.6778 8.80779 15.738 9.66084 16.1973 10.2031C17.3932 11.6152 19.0406 12.4777 20.666 13.2813L20.0447 14.6138C18.2175 13.7105 17.0257 12.8954 16.0854 12.1094C14.8235 11.0546 13.6727 8.8047 15.1258 7.46876ZM14.167 11.3109L14.1669 11.311C13.671 11.4787 13.028 11.6962 12.6817 11.75L12.9058 12.9417C13.7653 12.8081 14.6309 12.5659 15.4227 12.2431C15.4227 12.2431 15.2051 12.0195 14.9864 11.7149C14.7676 11.4102 14.6336 11.1563 14.6336 11.1563C14.513 11.1939 14.35 11.249 14.167 11.3109ZM13.2073 8.06251C13.1016 9.08507 12.4518 10.016 11.3948 11.375L10.4409 10.6262C11.3526 9.45397 11.6405 8.58239 11.7086 7.92331C11.7695 7.33447 11.6678 6.86634 11.5538 6.34165L11.5538 6.34164C11.5353 6.25605 11.5163 6.16895 11.4977 6.07957C11.3718 5.47425 11.2408 4.66069 11.8255 3.8668C12.3416 3.16606 13.3257 2.61514 14.8646 2.04984L15.4249 3.57518C15.317 3.61434 15.1745 3.66191 15.0145 3.71532C14.5106 3.88349 13.8335 4.10948 13.5198 4.31251C12.833 4.75686 12.9628 5.61894 13.1022 6.54439C13.1784 7.05081 13.2575 7.57621 13.2073 8.06251ZM8.99417 6.25001C9.4429 6.25001 9.80667 5.88624 9.80667 5.43751C9.80667 4.98878 9.4429 4.62501 8.99417 4.62501C8.54544 4.62501 8.18167 4.98878 8.18167 5.43751C8.18167 5.88624 8.54544 6.25001 8.99417 6.25001ZM5.18167 7.06251C5.18167 7.51124 4.8179 7.87501 4.36917 7.87501C3.92044 7.87501 3.55667 7.51124 3.55667 7.06251C3.55667 6.61378 3.92044 6.25001 4.36917 6.25001C4.8179 6.25001 5.18167 6.61378 5.18167 7.06251ZM19.9942 7.25001C20.4429 7.25001 20.8067 6.88624 20.8067 6.43751C20.8067 5.98878 20.4429 5.62501 19.9942 5.62501C19.5454 5.62501 19.1817 5.98878 19.1817 6.43751C19.1817 6.88624 19.5454 7.25001 19.9942 7.25001Z" fill="#052962"/>
</svg>
