<svg width="24" height="24" viewBox="0 0 24 24" fill="none" xmlns="http://www.w3.org/2000/svg">
<path fill-rule="evenodd" clip-rule="evenodd" d="M18.5 6.56064L20.7981 8.85873L21.8587 7.79807L19.5606 5.49998L21.8587 3.20189L20.7981 2.14124L18.5 4.43932L16.2019 2.14124L15.1412 3.20189L17.4393 5.49998L15.1412 7.79807L16.2019 8.85873L18.5 6.56064ZM18.5 11.5C18.564 11.5 18.6274 11.4989 18.6904 11.4968V20.5681L17.7857 21.5H12.8004V14.7143H8.27662V21.5H3.30948L2.40472 20.6043V11.5476H1.5V11.0952L2.40472 10.1905V10.1905L10.0047 2.50003H10.9095L12.6305 4.201C12.545 4.59956 12.5 5.03226 12.5 5.50003C12.5 8.5376 15 11.5 18.5 11.5Z" fill="#052962" style="fill:#052962;fill:color(display-p3 0.0196 0.1608 0.3843);fill-opacity:1;"/>
</svg>
