<svg width="24" height="24" viewBox="0 0 24 24" fill="none" xmlns="http://www.w3.org/2000/svg">
<path d="M12 2C6.48 2 2 6.48 2 12C2 17.52 6.48 22 12 22C17.52 22 22 17.52 22 12C22 6.48 17.52 2 12 2ZM17.55 11.53C17.55 12.2 17.43 12.84 17.21 13.43C17.42 13.81 17.54 14.25 17.54 14.71V14.89C17.54 16.36 16.34 17.56 14.87 17.56H14.49L13.71 16.78L13.57 16.64V12.95L14.49 12.03H14.87C15.49 12.03 16.05 12.24 16.5 12.59C16.58 12.25 16.63 11.89 16.63 11.52C16.63 8.98 14.56 6.91 12.02 6.91C9.48 6.91 7.41 8.98 7.41 11.52C7.41 11.89 7.46 12.25 7.54 12.6C8 12.24 8.57 12.03 9.19 12.03H9.57L10.49 12.95V16.64L10.34 16.79L9.57 17.56H9.19C7.72 17.56 6.52 16.36 6.52 14.89V14.71C6.52 14.25 6.64 13.82 6.84 13.45C6.62 12.85 6.5 12.2 6.5 11.53C6.5 8.48 8.97 6 12.03 6C15.09 6 17.56 8.48 17.56 11.53H17.55Z" fill="#052962" style="fill:#052962;fill:color(display-p3 0.0196 0.1608 0.3843);fill-opacity:1;"/>
</svg>
