<svg width="24" height="24" viewBox="0 0 24 24" fill="none" xmlns="http://www.w3.org/2000/svg">
<path fill-rule="evenodd" clip-rule="evenodd" d="M4.90491 4.02352L4.37474 2.61364L4.80201 2H7.19292L7.62019 2.61364L7.09856 4.00697C8.80539 4.47604 10.0634 6.04192 10.0634 7.89544C10.0634 9.68635 7.23612 20.5454 6.91339 21.7773H5.14976C4.82703 20.5454 1.99976 9.68181 1.99976 7.89544C1.99976 6.05984 3.22852 4.51137 4.90491 4.02352ZM7.02986 14.6644C6.68362 16.0975 6.3285 17.5163 6.03166 18.6851C5.73479 17.5158 5.37961 16.0964 5.0333 14.6628C4.66121 13.1223 4.30214 11.5768 4.03701 10.3116C4.02635 10.2607 4.01591 10.2106 4.00568 10.1612L5.67701 9.43181L5.51337 8.66817L3.72705 8.7008C3.65789 8.28849 3.62476 8.01713 3.62476 7.89544C3.62476 6.56683 4.70512 5.48863 6.03157 5.48863C7.35684 5.48863 8.43839 6.57018 8.43839 7.89544C8.43839 8.13767 8.30838 8.96641 8.02612 10.3136C7.88124 11.0051 7.7083 11.7802 7.52051 12.5924L6.1952 12.5682L6.03156 13.3318L7.22434 13.8537C7.16021 14.123 7.09523 14.3938 7.02986 14.6644Z" fill="#052962" style="fill:#052962;fill:color(display-p3 0.0196 0.1608 0.3843);fill-opacity:1;"/>
<path fill-rule="evenodd" clip-rule="evenodd" d="M16.7892 3.97067C15.839 4.35341 14.8543 4.75004 13.9498 5.65456C12.1887 7.41566 11.4595 9.82938 12.0367 11.8988L10.8134 13.5455L11.3952 14.1227L13.0404 12.9005C13.5072 13.0309 13.9915 13.0951 14.4816 13.0955H14.4861C16.1666 13.0941 17.9192 12.3488 19.2816 10.9864C21.2771 8.99547 22.0816 5.40001 21.1543 2.62274L19.6498 2.2682C18.7195 3.1985 17.7982 3.567 16.8227 3.9572L16.818 3.9591L16.7892 3.97067ZM17.4251 5.46642L17.4215 5.46788L17.3964 5.47799C16.436 5.8648 15.7428 6.15966 15.0988 6.80361C14.0024 7.90007 13.4741 9.23397 13.4691 10.4355L17.1134 7.24544L17.6907 7.82272L14.5012 11.4704C15.7056 11.4646 17.049 10.9209 18.1326 9.83733L18.1339 9.83602C19.4321 8.54078 20.1211 6.24172 19.8581 4.22017C19.0107 4.83255 18.1874 5.16168 17.4771 5.44563L17.4262 5.46598L17.4251 5.46642Z" fill="#052962" style="fill:#052962;fill:color(display-p3 0.0196 0.1608 0.3843);fill-opacity:1;"/>
<path fill-rule="evenodd" clip-rule="evenodd" d="M21.3224 12.2365C22.9518 15.6074 21.5422 19.6788 18.1725 21.3136C17.218 21.7773 16.2089 21.9955 15.2134 21.9955L15.2089 22C12.6861 22 10.2543 20.5909 9.08159 18.1727L21.3224 12.2365ZM16.7191 15.6446L20.0308 16.7907C20.3226 15.8912 20.3731 14.9136 20.1399 13.9776L16.7191 15.6446ZM19.676 17.6299L16.3217 16.469L17.8389 19.5937C18.6319 19.1123 19.2563 18.4236 19.676 17.6299ZM11.1489 18.3589L14.6069 16.6739L13.4625 19.9806C12.5658 19.6593 11.7529 19.1046 11.1489 18.3589ZM14.3431 20.2156L15.503 16.8643L17.0211 19.9907C16.1602 20.3119 15.232 20.3747 14.3431 20.2156Z" fill="#052962" style="fill:#052962;fill:color(display-p3 0.0196 0.1608 0.3843);fill-opacity:1;"/>
</svg>
