<svg width="24" height="24" viewBox="0 0 24 24" fill="none" xmlns="http://www.w3.org/2000/svg">
<path fill-rule="evenodd" clip-rule="evenodd" d="M13.6962 3.19399L10.8482 5.44217C11.5205 5.81836 12.3813 5.77689 13.0236 5.26988C13.6659 4.76286 13.906 3.93524 13.6962 3.19399ZM14.5254 1.58395C15.7103 3.08498 15.454 5.26235 13.953 6.44725C12.4519 7.63215 10.2746 7.37587 9.08966 5.87483L9.21365 4.82145L13.472 1.45996L14.5254 1.58395ZM7.70308 4.15151C8.29852 4.15151 8.78121 3.66882 8.78121 3.07338C8.78121 2.47795 8.29852 1.99526 7.70308 1.99526C7.10765 1.99526 6.62496 2.47795 6.62496 3.07338C6.62496 3.66882 7.10765 4.15151 7.70308 4.15151ZM12.3437 9.01741C12.3437 9.61284 11.861 10.0955 11.2656 10.0955C10.6702 10.0955 10.1875 9.61284 10.1875 9.01741C10.1875 8.42198 10.6702 7.93929 11.2656 7.93929C11.861 7.93929 12.3437 8.42198 12.3437 9.01741ZM8.31172 10.9953C8.31221 10.9819 8.31246 10.9684 8.31246 10.9549C8.31246 10.3595 7.82977 9.87679 7.23433 9.87679C6.6389 9.87679 6.15621 10.3595 6.15621 10.9549C6.15621 10.9684 6.15646 10.9819 6.15695 10.9953H2.90882L1.99994 11.9119C1.99994 16.4219 4.46756 20.2994 8.00312 21.9953H15.9968C19.5278 20.2994 21.9999 16.4219 21.9999 11.9119L21.0911 10.9953H18.2422L21.0692 6.44483C21.3759 5.91465 21.4549 5.29227 21.2923 4.69755C21.1296 4.10283 20.7439 3.60492 20.2049 3.30064C19.0989 2.66904 17.6722 3.05169 17.0495 4.13049L12.8128 10.9953H8.31172ZM2.84247 4.70131C2.64636 4.97936 2.4136 5.40961 2.2444 5.73607C2.15616 5.90631 2.07866 6.06122 2.02324 6.17352C1.99547 6.22976 1.97313 6.27555 1.95762 6.30752L1.93962 6.34474L1.93286 6.3588L2.38722 7.39892L7.89058 8.87679L8.48433 8.09554L5.1709 3.44184L4.05672 3.36222L4.05374 3.3651L4.04615 3.37248L4.01844 3.39953C3.99472 3.42276 3.96086 3.45609 3.91937 3.4974C3.83655 3.57984 3.72246 3.69489 3.59742 3.82533C3.35805 4.07504 3.04132 4.41936 2.84247 4.70131ZM5.9888 6.94538L3.67973 6.22929C3.82129 5.96402 3.96435 5.71318 4.06827 5.56583C4.16542 5.42809 4.33186 5.23621 4.51266 5.04107L5.9888 6.94538ZM14.7091 10.9953H16.281L19.6712 5.61585C19.7511 5.46915 19.7725 5.30035 19.7249 5.12622C19.6759 4.9472 19.5654 4.80567 19.4061 4.71577L19.4026 4.71377L19.399 4.71176C19.0551 4.51536 18.6239 4.65335 18.4568 4.94286L18.4449 4.96357L14.7091 10.9953ZM8.39102 20.3703C5.79378 18.9781 3.87939 16.0924 3.6484 12.6203H20.3514C20.12 16.0914 18.203 18.9777 15.6084 20.3703H8.39102Z" fill="#052962"/>
</svg>
