<svg width="24" height="24" viewBox="0 0 24 24" fill="none" xmlns="http://www.w3.org/2000/svg">
<path fill-rule="evenodd" clip-rule="evenodd" d="M21.1667 12C21.1667 17.0626 17.0626 21.1667 12 21.1667C6.93739 21.1667 2.83333 17.0626 2.83333 12C2.83333 6.93739 6.93739 2.83333 12 2.83333C17.0626 2.83333 21.1667 6.93739 21.1667 12ZM22 12C22 17.5228 17.5228 22 12 22C6.47715 22 2 17.5228 2 12C2 6.47715 6.47715 2 12 2C17.5228 2 22 6.47715 22 12ZM7.46018 15.1367L8.19671 12.8763H11.219L11.9555 15.1367L10.9142 15.3779V15.924H14.2667V15.3525L13.3778 15.1367L10.5333 6.80628H9.46658L6.54587 15.1367L5.63156 15.3525V15.924H8.51418V15.3779L7.46018 15.1367ZM9.79673 8.44442L11.0666 12.3429H8.39987L9.73324 8.44442H9.79673ZM18.3684 15.5303L17.7462 15.3525L15.7271 9.48571H14.9652L13.7461 12.9779L14.0762 13.8541V13.8287H16.235L16.743 15.3525L15.9938 15.5303V15.924H18.3684V15.5303ZM15.2064 10.6413L16.0826 13.3715H14.254L15.1683 10.6413H15.2064Z" fill="#052962"/>
</svg>
