<svg width="24" height="24" viewBox="0 0 24 24" fill="none" xmlns="http://www.w3.org/2000/svg">
<path fill-rule="evenodd" clip-rule="evenodd" d="M4.36353 6.5V5.5L4.99989 4.71739L9.81808 3.63043V2.54348L10.3635 2H13.6363L14.1817 2.54348V3.63043L18.9999 4.71739L19.6363 5.5L19.6363 6.5H4.36353ZM5.9999 21.0001L4.36353 7.50005H19.6363L17.9999 21.0001L16.9999 22.0001L6.9999 21.9091L5.9999 21.0001ZM14.1817 17.6523V11.5435L14.7272 11L15.2726 11.5435V17.6523L14.7272 18.1958L14.1817 17.6523ZM8.72717 11.5436V17.6523L9.27263 18.1958L9.81808 17.6523V11.5436L9.27263 11.0001L8.72717 11.5436ZM11.4544 17.6523V11.5435L11.9999 11L12.5454 11.5435V17.6523L11.9999 18.1958L11.4544 17.6523Z" fill="#052962"/>
</svg>
