<svg width="24" height="24" viewBox="0 0 24 24" fill="none" xmlns="http://www.w3.org/2000/svg">
<path fill-rule="evenodd" clip-rule="evenodd" d="M2 12C2 17.51 6.49 22 12 22C17.51 22 22 17.51 22 12C22 6.49 17.51 2 12 2C6.49 2 2 6.49 2 12ZM3.6 12C3.6 7.37 7.37 3.6 12 3.6C16.63 3.6 20.4 7.37 20.4 12C20.4 16.63 16.63 20.4 12 20.4C7.37 20.4 3.6 16.63 3.6 12ZM18.0699 12.15L13.0599 11.84L12.4299 4.22998H11.5999L10.9199 12.38L12.0599 13.52L18.0699 12.98V12.15Z" fill="#052962" style="fill:#052962;fill:color(display-p3 0.0196 0.1608 0.3843);fill-opacity:1;"/>
</svg>
