<svg width="24" height="24" viewBox="0 0 24 24" fill="none" xmlns="http://www.w3.org/2000/svg">
<path fill-rule="evenodd" clip-rule="evenodd" d="M15.3591 11.4257C14.786 11.4257 14.2399 11.5483 13.7471 11.7693C13.2989 11.9703 12.8954 12.2522 12.5552 12.5962C11.8512 13.308 11.4155 14.2883 11.4155 15.3693C11.4155 17.5473 13.1811 19.3129 15.3591 19.3129C17.5371 19.3129 19.3027 17.5473 19.3027 15.3693C19.3027 13.1913 17.5371 11.4257 15.3591 11.4257ZM14.2074 12.7959C14.5583 12.6385 14.9477 12.5507 15.3591 12.5507C16.9158 12.5507 18.1777 13.8126 18.1777 15.3693C18.1777 16.926 16.9158 18.1879 15.3591 18.1879C13.8025 18.1879 12.5405 16.926 12.5405 15.3693C12.5405 14.5964 12.8509 13.8971 13.3551 13.3873C13.5989 13.1408 13.8876 12.9393 14.2074 12.7959Z" fill="#052962"/>
<path fill-rule="evenodd" clip-rule="evenodd" d="M12.0156 3.75C10.8105 3.75 9.66791 4.00734 8.63776 4.46923C7.69946 4.88994 6.85319 5.48097 6.13865 6.20342C4.66093 7.69749 3.75 9.74932 3.75 12.0156C3.75 16.1526 6.78927 19.5798 10.7568 20.186C10.0354 19.4965 9.46858 18.6465 9.11375 17.6934C7.05185 16.6374 5.64062 14.4913 5.64062 12.0156C5.64062 10.2681 6.34452 8.68386 7.48294 7.53283C8.03319 6.97649 8.68547 6.52071 9.40987 6.19591C10.2061 5.83891 11.0885 5.64062 12.0156 5.64062C14.4983 5.64062 16.6495 7.05979 17.7023 9.13113C20.2255 10.0794 22.021 12.5147 22.021 15.3693C22.021 19.0486 19.0384 22.0312 15.3591 22.0312C14.8435 22.0312 14.3416 21.9727 13.8597 21.8618C13.262 21.9731 12.6456 22.0312 12.0156 22.0312C6.48415 22.0312 2 17.5471 2 12.0156C2 9.27011 3.10586 6.78116 4.89443 4.97281C5.75892 4.09875 6.78371 3.38268 7.92178 2.8724C9.17271 2.31152 10.559 2 12.0156 2C17.5471 2 22.0312 6.48415 22.0312 12.0156C22.0312 12.6562 21.9711 13.2827 21.8562 13.8899C21.5868 12.702 21.0001 11.6346 20.1898 10.7817C19.5941 6.802 16.1613 3.75 12.0156 3.75ZM8.69714 15.3693C8.69714 15.6223 8.71124 15.872 8.7387 16.1176C7.53599 15.1556 6.76562 13.6756 6.76562 12.0156C6.76562 10.5762 7.3442 9.27292 8.2828 8.32394C8.73666 7.86506 9.27417 7.48967 9.87014 7.22245C10.5244 6.92908 11.2502 6.76562 12.0156 6.76562C13.6813 6.76562 15.1658 7.54134 16.1276 8.75123C15.8754 8.72227 15.619 8.70738 15.3591 8.70738C14.3907 8.70738 13.4684 8.91454 12.6359 9.2878C11.8788 9.62729 11.1972 10.1036 10.6224 10.6848C9.43302 11.8873 8.69714 13.5432 8.69714 15.3693ZM13.3519 10.8846C13.9636 10.6104 14.6423 10.4574 15.3591 10.4574C18.0719 10.4574 20.271 12.6565 20.271 15.3693C20.271 18.0821 18.0719 20.2812 15.3591 20.2812C12.6463 20.2812 10.4471 18.0821 10.4471 15.3693C10.4471 14.0224 10.9881 12.8036 11.8666 11.9154C12.2915 11.4858 12.7945 11.1345 13.3519 10.8846Z" fill="#052962"/>
</svg>
