<svg width="24" height="24" viewBox="0 0 24 24" fill="none" xmlns="http://www.w3.org/2000/svg">
<path fill-rule="evenodd" clip-rule="evenodd" d="M10.2998 9.49997C12.1248 9.49997 14.2748 7.44998 14.2748 4.94999C14.2748 2.45 12.7998 1 10.2998 1C7.79978 1 6.34979 2.45 6.34979 4.94999C6.34979 7.44998 8.67478 9.49997 10.2998 9.49997ZM22.6497 13.3L21.5997 14.35L19.2997 12.05L16.9998 14.35L15.9498 13.3L18.2497 11L15.9498 8.69997L16.9998 7.64998L19.2997 9.94997L21.5997 7.64998L22.6497 8.69997L20.3497 11L22.6497 13.3ZM10.2998 11.5C11.3748 11.5 12.3998 11.575 13.3248 11.75C13.5998 14.35 15.6498 16.4499 18.1997 16.8999L19.2997 20.9999L18.2747 21.9999H2.2748L1.2998 20.9999L3.2748 13.5L4.29979 12.475C6.29979 11.8 8.09978 11.5 10.2998 11.5Z" fill="#052962" style="fill:#052962;fill:color(display-p3 0.0196 0.1608 0.3843);fill-opacity:1;"/>
</svg>
