<svg width="24" height="24" viewBox="0 0 24 24" fill="none" xmlns="http://www.w3.org/2000/svg">
<path d="M12 2C6.48 2 2 6.48 2 12C2 17.52 6.48 22 12 22C17.52 22 22 17.52 22 12C22 6.48 17.52 2 12 2ZM11.83 6.79H12.16L14.59 9.22L14.16 9.63L12.47 8.34V12.47H11.52V8.34L9.83 9.63L9.42 9.22L11.84 6.79H11.83ZM17.21 15.78L16.72 16.27H7.25L6.79 15.78V11.06H7.26L7.73 11.53V15.32H16.26V11.53L16.73 11.06H17.2V15.78H17.21Z" fill="#052962" style="fill:#052962;fill:color(display-p3 0.0196 0.1608 0.3843);fill-opacity:1;"/>
</svg>
