<svg width="24" height="24" viewBox="0 0 24 24" fill="none" xmlns="http://www.w3.org/2000/svg">
<path fill-rule="evenodd" clip-rule="evenodd" d="M21.2 12C21.2 17.081 17.081 21.2 12 21.2C6.91898 21.2 2.8 17.081 2.8 12C2.8 6.91898 6.91898 2.8 12 2.8C17.081 2.8 21.2 6.91898 21.2 12ZM22 12C22 17.5228 17.5228 22 12 22C6.47715 22 2 17.5228 2 12C2 6.47715 6.47715 2 12 2C17.5228 2 22 6.47715 22 12ZM17.1381 7.64242L16.3562 6.86169L12.0071 10.8436L7.64323 6.87695L6.86133 7.65768L10.849 12L6.86133 16.3424L7.64323 17.1231L12.0071 13.1564L16.3562 17.1383L17.1381 16.3576L13.1653 12L17.1381 7.64242Z" fill="#052962"/>
</svg>
