<svg width="24" height="24" viewBox="0 0 24 24" fill="none" xmlns="http://www.w3.org/2000/svg">
<path fill-rule="evenodd" clip-rule="evenodd" d="M17.7197 13.2959L17.885 19.3423H19.0156V21H5V19.3423H6.13192L6.35833 13.3021C3.93231 13.2029 1.99597 11.2047 1.99597 8.75435C1.99597 6.24057 4.0338 4.20274 6.54758 4.20274C7.05118 4.20274 7.53652 4.28482 7.99037 4.43642C9.12634 3.32255 10.632 2.625 12.3841 2.625C14.0669 2.625 15.6081 3.23546 16.7969 4.24543C16.9977 4.21729 17.2038 4.20274 17.4145 4.20274C19.9283 4.20274 21.9661 6.24057 21.9661 8.75435C21.9661 11.1656 20.0911 13.1389 17.7197 13.2959ZM7.57035 7.55106C8.31774 5.68226 10.2516 4.37649 12.3841 4.37649C13.2889 4.37649 14.1379 4.61323 14.8731 5.02875C13.7526 5.85551 13.0522 7.22224 13.0522 8.75435H14.3659C14.3659 7.23556 15.9294 5.81522 17.4145 5.81522C18.9609 5.81522 20.2146 7.20789 20.2146 8.75435C20.2146 10.2141 19.0976 11.4129 17.6717 11.5428L17.6383 10.319L16.3872 10.319L16.2217 16.371H7.75563L7.63583 13.1749C8.29683 13.0126 8.90152 12.7059 9.4135 12.2906L8.63376 11.2417C8.07394 11.6327 7.21649 11.8047 6.54758 11.8047C5.00112 11.8047 3.74746 10.3008 3.74746 8.75435C3.74746 7.20789 5.00112 5.95423 6.54758 5.95423C6.63481 5.95423 6.72103 5.9582 6.80611 5.96596C6.61212 6.2987 6.4417 6.64848 6.2965 7.01154L7.57035 7.55106ZM7.80721 17.7472L7.867 19.3423H16.1404L16.184 17.7472H7.80721Z" fill="#052962"/>
</svg>
