<svg width="24" height="24" viewBox="0 0 24 24" fill="none" xmlns="http://www.w3.org/2000/svg">
<path fill-rule="evenodd" clip-rule="evenodd" d="M12.0411 2C10.4168 2 9.13503 3.27202 9.13503 4.90607C9.13503 6.54012 10.407 7.81213 12.0411 7.81213C13.6751 7.81213 14.9472 6.54012 14.9472 4.90607C14.9472 3.27202 13.6751 2 12.0411 2ZM12.0411 6.36399C11.2485 6.36399 10.5832 5.69863 10.5832 4.90607C10.5832 4.1135 11.2485 3.43836 12.0411 3.43836C12.4325 3.43836 12.8239 3.6047 13.1076 3.88845C13.3718 4.16243 13.5186 4.52446 13.5088 4.89628C13.5088 5.68885 12.8434 6.35421 12.0509 6.35421L12.0411 6.36399ZM5.90607 5.50294C4.27202 5.50294 3 6.78474 3 8.409C3 10.0333 4.27202 11.3151 5.90607 11.3151C7.54012 11.3151 8.81213 10.0431 8.81213 8.409C8.81213 6.77495 7.54012 5.50294 5.90607 5.50294ZM5.90607 9.86693C5.1135 9.86693 4.44814 9.20157 4.44814 8.409C4.44814 7.61644 5.1135 6.94129 5.90607 6.94129C6.29746 6.94129 6.68885 7.10763 6.9726 7.39139C7.23679 7.66536 7.38356 8.0274 7.37378 8.39922C7.37378 9.19178 6.70841 9.85714 5.91585 9.85714L5.90607 9.86693ZM15.2994 8.409C15.2994 6.77495 16.5812 5.50294 18.2055 5.50294C19.8395 5.50294 21.1115 6.77495 21.1115 8.409C21.1115 10.0431 19.8395 11.3151 18.2055 11.3151C16.5714 11.3151 15.2994 10.0431 15.2994 8.409ZM16.7476 8.409C16.7476 9.20157 17.4129 9.86693 18.2055 9.86693L18.2153 9.85714C19.0078 9.85714 19.6732 9.19178 19.6732 8.39922C19.683 8.0274 19.5362 7.66536 19.272 7.39139C18.9883 7.10763 18.5969 6.94129 18.2055 6.94129C17.4129 6.94129 16.7476 7.61644 16.7476 8.409ZM12.0411 9.09393C10.4168 9.09393 9.13503 10.3659 9.13503 12C9.13503 13.6341 10.407 14.9061 12.0411 14.9061C13.6751 14.9061 14.9472 13.6341 14.9472 12C14.9472 10.3659 13.6751 9.09393 12.0411 9.09393ZM12.0411 13.4579C11.2485 13.4579 10.5832 12.7926 10.5832 12C10.5832 11.2074 11.2485 10.5323 12.0411 10.5323C12.4325 10.5323 12.8239 10.6986 13.1076 10.9824C13.3718 11.2564 13.5186 11.6184 13.5088 11.9902C13.5088 12.7828 12.8434 13.4481 12.0509 13.4481L12.0411 13.4579ZM3 15.5127C3 13.8787 4.2818 12.6067 5.90607 12.6067C7.54012 12.6067 8.81213 13.8787 8.81213 15.5127C8.81213 17.1468 7.54012 18.4188 5.90607 18.4188C4.27202 18.4188 3 17.1468 3 15.5127ZM4.44814 15.5127C4.44814 16.3053 5.1135 16.9706 5.90607 16.9706L5.91585 16.9609C6.70841 16.9609 7.37378 16.2955 7.37378 15.5029C7.38356 15.1311 7.23679 14.7691 6.9726 14.4951C6.68885 14.2114 6.29746 14.045 5.90607 14.045C5.1135 14.045 4.44814 14.7202 4.44814 15.5127ZM12.0411 16.1879C10.4168 16.1879 9.13503 17.4599 9.13503 19.0939C9.13503 20.728 10.407 22 12.0411 22C13.6751 22 14.9472 20.728 14.9472 19.0939C14.9472 17.4599 13.6751 16.1879 12.0411 16.1879ZM12.0411 20.5519C11.2485 20.5519 10.5832 19.8865 10.5832 19.0939C10.5832 18.3014 11.2485 17.6262 12.0411 17.6262C12.4325 17.6262 12.8239 17.7926 13.1076 18.0763C13.3718 18.3503 13.5186 18.7123 13.5088 19.0841C13.5088 19.8767 12.8434 20.5421 12.0509 20.5421L12.0411 20.5519ZM15.2407 15.5127C15.2407 13.8787 16.5225 12.6067 18.1468 12.6067C19.7808 12.6067 21.0528 13.8787 21.0528 15.5127C21.0528 17.1468 19.7808 18.4188 18.1468 18.4188C16.5127 18.4188 15.2407 17.1468 15.2407 15.5127ZM16.6888 15.5127C16.6888 16.3053 17.3542 16.9706 18.1468 16.9706L18.1566 16.9609C18.9491 16.9609 19.6145 16.2955 19.6145 15.5029C19.6243 15.1311 19.4775 14.7691 19.2133 14.4951C18.9295 14.2114 18.5382 14.045 18.1468 14.045C17.3542 14.045 16.6888 14.7202 16.6888 15.5127Z" fill="#052962" style="fill:#052962;fill:color(display-p3 0.0196 0.1608 0.3843);fill-opacity:1;"/>
</svg>
