<svg width="24" height="24" viewBox="0 0 24 24" fill="none" xmlns="http://www.w3.org/2000/svg">
<path fill-rule="evenodd" clip-rule="evenodd" d="M3.54492 7.64822C3.94042 6.77827 4.49929 6.01925 5.15462 5.33242C6.63755 3.77808 8.43307 2.78267 10.5585 2.44316C13.5333 1.96793 16.1958 2.6694 18.4966 4.65053C18.6419 4.77573 18.6779 4.8489 18.5198 5.00369C17.7077 5.7989 16.9085 6.60718 16.1045 7.41073C16.022 7.49312 15.9663 7.59374 15.8199 7.45948C13.7942 5.60349 10.4878 5.62464 8.33532 7.6264C7.59635 8.31365 7.07086 9.13724 6.72682 10.0814C6.67661 10.0485 6.62385 10.0191 6.57651 9.98271C5.56564 9.20505 4.55533 8.4265 3.54492 7.64822Z" fill="#D7282A"/>
<path fill-rule="evenodd" clip-rule="evenodd" d="M12.1428 21.691C9.98433 21.6889 7.96214 20.9958 6.10414 19.5295C5.0076 18.6642 4.14509 17.5953 3.53711 16.33L6.70312 13.8719C6.99347 14.6094 7.35433 15.3068 7.8906 15.899C9.25422 17.4049 10.9445 18.0546 12.9697 17.8443C13.9106 17.7466 14.768 17.4279 15.569 16.9382C15.5936 16.9602 15.6178 16.9827 15.6421 17.0052C15.6935 17.0529 15.745 17.1006 15.8 17.1437C16.5223 17.7076 17.2453 18.2706 17.9683 18.8336C18.1838 19.0013 18.3992 19.1691 18.6146 19.3369C17.5799 20.3196 16.3581 20.9738 14.9838 21.3212C14.0203 21.5648 13.0792 21.6901 12.1627 21.691C12.1561 21.6911 12.1494 21.6911 12.1428 21.691Z" fill="#45AC43"/>
<path fill-rule="evenodd" clip-rule="evenodd" d="M18.6146 19.3369C18.4343 19.1965 18.254 19.0561 18.0737 18.9157C17.3156 18.3253 16.5574 17.735 15.8001 17.1437C15.7449 17.1006 15.6933 17.0528 15.6418 17.0049C15.6177 16.9825 15.5935 16.9601 15.569 16.9382C16.2044 16.4534 16.7345 15.8799 17.0827 15.1513C17.2215 14.8608 17.3191 14.5567 17.4114 14.2492C17.4749 14.0373 17.4552 13.9548 17.193 13.9571C16.0179 13.967 14.8426 13.9657 13.6674 13.9644C13.2808 13.964 12.8941 13.9636 12.5075 13.9636C12.1767 13.9636 12.1764 13.9634 12.1764 13.6213C12.1764 13.3388 12.1767 13.0563 12.1771 12.7739C12.178 11.9977 12.1789 11.2216 12.1719 10.4455C12.1719 10.4408 12.1719 10.4361 12.1719 10.4315C12.1719 10.2385 12.2109 10.1636 12.433 10.1636C12.4339 10.1636 12.4348 10.1636 12.4357 10.1636C15.3164 10.172 18.1972 10.1701 21.078 10.1662C21.2335 10.166 21.3313 10.1776 21.3583 10.3667C21.4497 11.0093 21.4991 11.6445 21.5001 12.2713V12.3108C21.4972 14.1275 21.086 15.8726 20.1107 17.5172C19.707 18.1979 19.2218 18.8195 18.6146 19.3369Z" fill="#5D7FBE"/>
<path fill-rule="evenodd" clip-rule="evenodd" d="M6.70297 13.872C5.64766 14.6913 4.59236 15.5107 3.53695 16.33C3.02157 15.3719 2.72429 14.3425 2.58561 13.2704C2.34531 11.4128 2.60935 9.62554 3.39738 7.92111C3.44066 7.82747 3.4955 7.7392 3.54492 7.64832C4.55533 8.4265 5.56564 9.20505 6.57651 9.98271C6.62386 10.0191 6.67666 10.0485 6.72682 10.0813C6.30351 11.3424 6.3246 12.606 6.70297 13.872Z" fill="#F4C300"/>
</svg>
