<svg width="24" height="24" viewBox="0 0 24 24" fill="none" xmlns="http://www.w3.org/2000/svg">
<path d="M20.8 11.2553C20.8 6.42265 16.8797 2.50232 12.043 2.50232C7.20638 2.50232 3.29004 6.42265 3.29004 11.2553C3.29004 12.327 3.48526 13.3509 3.83586 14.3031C3.51713 14.8968 3.33386 15.578 3.33386 16.2992V16.59C3.33386 18.9247 5.23427 20.8251 7.56893 20.8251H8.17053L9.39364 19.602L9.6287 19.3669V13.5223L8.17053 12.0641H7.56893C6.58487 12.0641 5.68048 12.4027 4.95937 12.9685C4.82789 12.4187 4.74821 11.845 4.74821 11.2553C4.74821 7.2354 8.02312 3.96049 12.043 3.96049C16.063 3.96049 19.3379 7.2354 19.3379 11.2553C19.3379 11.841 19.2622 12.4067 19.1307 12.9486C18.4136 12.3948 17.5211 12.0601 16.545 12.0601H15.9435L14.4853 13.5183V19.3629L14.7124 19.59L15.9435 20.8211H16.545C18.8797 20.8211 20.7801 18.9207 20.7801 16.586V16.2952C20.7801 15.5621 20.5929 14.8729 20.2622 14.2713C20.6088 13.331 20.7961 12.3151 20.7961 11.2553H20.8ZM5.49722 14.4545C6.00718 13.8848 6.74423 13.5223 7.56893 13.5223H8.17053V19.3669H7.56893C6.03507 19.3669 4.79203 18.1239 4.79203 16.59V16.2992C4.79203 16.2553 4.79602 16.2155 4.8 16.1717C4.82789 15.5143 5.08686 14.9167 5.49722 14.4545ZM19.3259 16.2952V16.586C19.3259 18.1199 18.0829 19.3629 16.549 19.3629H15.9474V13.5183H16.549C17.3658 13.5183 18.0949 13.8729 18.6008 14.4306C19.0152 14.8848 19.2781 15.4745 19.314 16.1278C19.314 16.1836 19.3219 16.2354 19.3219 16.2912L19.3259 16.2952Z" fill="#052962"/>
</svg>
