<svg width="24" height="24" viewBox="0 0 24 24" fill="none" xmlns="http://www.w3.org/2000/svg">
<path fill-rule="evenodd" clip-rule="evenodd" d="M21.1667 12C21.1667 17.0626 17.0626 21.1667 12 21.1667C6.93739 21.1667 2.83333 17.0626 2.83333 12C2.83333 6.93739 6.93739 2.83333 12 2.83333C17.0626 2.83333 21.1667 6.93739 21.1667 12ZM22 12C22 17.5228 17.5228 22 12 22C6.47715 22 2 17.5228 2 12C2 6.47715 6.47715 2 12 2C17.5228 2 22 6.47715 22 12ZM13.9539 7.94976L13.7402 7.73265H10.2631L10.046 7.94976V16.0526L12 14.9695L13.9539 16.0526V7.94976ZM9.9013 6.79669L14.0987 6.78945L14.8923 7.58551V17.4011L14.6221 17.5748L12 16.0695L9.37542 17.5748L9.10524 17.4035V7.58551L9.9013 6.79669Z" fill="#052962"/>
</svg>
