<svg width="24" height="24" viewBox="0 0 24 24" fill="none" xmlns="http://www.w3.org/2000/svg">
<path fill-rule="evenodd" clip-rule="evenodd" d="M11.5039 13.125H13.1289V11.4961L7.57373 6.81711L6.817 7.57384L11.5039 13.125Z" fill="#052962"/>
<path d="M12.6289 3.77481V7.00391H11.6172L11.1064 2.08498C11.4038 2.03751 11.5932 2.01831 11.873 2.0053C11.9096 2.00192 11.9467 2 11.9844 2C11.9895 2 11.9946 2 11.9997 2.00001C17.5154 2.00844 21.9844 6.48236 21.9844 12C21.9844 17.5228 17.5072 22 11.9844 22C6.46153 22 1.98438 17.5228 1.98438 12C1.98438 9.25876 3.08851 6.7737 4.87428 4.96817L6.11851 6.19878C4.64358 7.69003 3.73438 9.73798 3.73438 12C3.73438 16.5563 7.42803 20.25 11.9844 20.25C16.5407 20.25 20.2344 16.5563 20.2344 12C20.2344 7.66055 16.884 4.10362 12.6289 3.77481Z" fill="#052962"/>
</svg>
