<svg width="24" height="24" viewBox="0 0 24 24" fill="none" xmlns="http://www.w3.org/2000/svg">
<path fill-rule="evenodd" clip-rule="evenodd" d="M2 15.75H5.74998L11 20.9999H12V3H11L5.74998 8.24998H2L1 9.24998V14.75L2 15.75ZM21.2998 12C21.2998 14.7 20.3748 17.175 18.7998 19.175L19.3498 19.7C21.5748 17.875 22.9998 15.125 22.9998 12C22.9998 8.87501 21.5748 6.10002 19.3498 4.27502L18.7998 4.80002C20.3748 6.80002 21.2998 9.27501 21.2998 12ZM16.0999 12C16.0999 13.575 15.675 14.975 14.825 16.2L15.475 16.85C16.7499 15.575 17.4999 13.9 17.4999 12C17.4999 10.075 16.7499 8.39998 15.475 7.12499L14.825 7.77498C15.675 8.99998 16.0999 10.425 16.0999 12Z" fill="#052962" style="fill:#052962;fill:color(display-p3 0.0196 0.1608 0.3843);fill-opacity:1;"/>
</svg>
