<svg width="24" height="24" viewBox="0 0 24 24" fill="none" xmlns="http://www.w3.org/2000/svg">
<path d="M16.9438 9.24225C17.6342 9.24225 18.1938 8.6826 18.1938 7.99225C18.1938 7.30189 17.6342 6.74225 16.9438 6.74225C16.2535 6.74225 15.6938 7.30189 15.6938 7.99225C15.6938 8.6826 16.2535 9.24225 16.9438 9.24225Z" fill="#052962"/>
<path fill-rule="evenodd" clip-rule="evenodd" d="M6.20606 18.9607C7.34681 17.9288 8.7568 17.1953 10.3162 16.8812L11.5343 12.3112L11.3898 11.766L4.64163 13.4673L3.88281 13.014L2.60046 7.9277L3.05371 7.16887L9.72586 5.48672L9.58371 4.9503L10.792 4.63011L12.1828 9.87835L13.9161 3.375L15.124 3.69693L15.0066 4.13724L21.4165 5.74024L21.8712 6.4982L20.5986 11.587L19.8407 12.0417L13.3335 10.4144L12.8277 12.3122L14.0562 16.9483C15.4947 17.2927 16.7958 17.9965 17.8618 18.9606H20.2839V19.8356L19.5339 20.5856L4.53389 20.5856L3.78389 19.8356L3.78389 18.9607H6.20606ZM12.0339 16.7106C11.9063 16.7106 11.7794 16.7134 11.6531 16.7189L12.1792 14.745L12.707 16.7364C12.4848 16.7193 12.2604 16.7106 12.0339 16.7106ZM13.6555 9.20639L14.6846 5.34521L20.507 6.80127L19.5376 10.6774L13.6555 9.20639ZM3.96533 8.22815L5.20453 7.91573L6.21191 11.7823L4.94209 12.1024L3.96533 8.22815ZM7.5774 7.3175L6.41664 7.61014L7.42402 11.4767L8.58478 11.184L7.5774 7.3175ZM9.79689 10.8785L8.78951 7.0119L10.0461 6.69511L11.0696 10.5576L9.79689 10.8785Z" fill="#052962"/>
</svg>
