<svg width="24" height="24" viewBox="0 0 24 24" fill="none" xmlns="http://www.w3.org/2000/svg">
<path fill-rule="evenodd" clip-rule="evenodd" d="M17.2124 2.74365C15.0835 4.46822 13.1929 4.93128 11.2851 5.39857C10.9923 5.47029 10.699 5.54212 10.4045 5.61862C7.22039 6.44553 5.07229 8.33021 4.18918 10.8185C3.35241 13.1762 3.70097 15.9352 5.15189 18.6146C4.90996 19.0105 4.68134 19.395 4.46189 19.7663L5.86089 20.593C6.0427 20.2853 6.22994 19.9702 6.42506 19.6484H11.1614C13.3466 19.6484 15.1261 19.0582 16.4954 18.01C17.8608 16.965 18.7609 15.5088 19.2685 13.8703C20.2765 10.6171 19.7704 6.55971 18.2063 3.10259L17.2124 2.74365ZM11.6477 6.98403C11.3623 7.0534 11.0839 7.12106 10.8129 7.19144C8.05538 7.90759 6.39272 9.46821 5.72059 11.362C5.14804 12.9753 5.25503 14.9418 6.17353 17.0139C7.64068 14.8258 9.84889 12.5937 12.8645 10.2187L13.552 11.0312C10.6458 13.625 8.86836 15.8975 7.45352 18.0234H11.1614C13.0439 18.0234 14.4622 17.5199 15.5077 16.7197C16.5572 15.9164 17.2887 14.7695 17.7163 13.3894C18.4872 10.9014 18.2422 7.72795 17.1507 4.80336C15.1399 6.13524 13.2795 6.58742 11.6477 6.98403Z" fill="#052962"/>
</svg>
