<svg width="24" height="24" viewBox="0 0 24 24" fill="none" xmlns="http://www.w3.org/2000/svg">
<path fill-rule="evenodd" clip-rule="evenodd" d="M12.3594 2.5H11.4547L3.85467 10.1905V10.1905L2.94995 11.0952V11.5476H3.85467V20.6043L4.75943 21.5H9.72657H14.2504H19.2356L20.1404 20.5681V11.5476H21.0452V11.0952L19.688 9.73807L19.687 9.74234L12.3594 2.5ZM17.9624 14.5624L17.9624 14.5624L17.9624 14.5624C17.9821 14.3744 18 14.2042 18 14.025C18 13.7912 17.9805 13.606 17.9598 13.4088L17.9598 13.4087C17.9473 13.2896 17.9344 13.1662 17.925 13.025L16.7 12.75C16.625 12.275 16.45 11.9 16.225 11.5L16.875 10.45C16.475 9.94999 16.05 9.49999 15.525 9.125L14.5 9.77499C14.1 9.54999 13.675 9.375 13.2 9.3L12.975 8.075C12.625 8.025 12.3 8 11.975 8C11.7 8 11.375 8.025 11.025 8.075L10.8 9.3C10.325 9.375 9.89999 9.54999 9.49999 9.77499L8.49999 9.125C7.92499 9.49999 7.52499 9.94999 7.125 10.45L7.77499 11.5C7.52499 11.925 7.375 12.35 7.3 12.75L6.075 13.025C6.06559 13.1662 6.05263 13.2897 6.04013 13.4088C6.01944 13.606 6 13.7912 6 14.025C6 14.2042 6.01784 14.3744 6.03753 14.5624L6.03753 14.5624C6.05081 14.6892 6.06493 14.824 6.075 14.975L7.3 15.175C7.37112 15.6491 7.53216 15.9884 7.74049 16.4272L7.77499 16.5L7.125 17.475C7.49999 18 7.97499 18.475 8.49999 18.875L9.49999 18.225C9.87499 18.45 10.325 18.6 10.8 18.7L11.025 19.925C11.176 19.935 11.3108 19.9491 11.4375 19.9624C11.6255 19.9821 11.7958 20 11.975 20C12.2088 20 12.394 19.9805 12.5912 19.9598C12.7103 19.9473 12.8338 19.9344 12.975 19.925L13.2 18.7C13.675 18.6 14.125 18.45 14.5 18.225L15.525 18.875C16.05 18.475 16.475 18.05 16.875 17.475L16.225 16.5C16.45 16.1 16.625 15.675 16.7 15.175L17.925 14.975C17.935 14.824 17.9491 14.6892 17.9624 14.5624ZM9.125 14.03C9.125 15.53 10.375 16.88 11.975 16.88C13.625 16.88 14.875 15.53 14.875 14.03C14.875 12.355 13.65 11.13 11.975 11.13C10.375 11.13 9.125 12.38 9.125 14.03Z" fill="#052962" style="fill:#052962;fill:color(display-p3 0.0196 0.1608 0.3843);fill-opacity:1;"/>
</svg>
