<svg width="24" height="24" viewBox="0 0 24 24" fill="none" xmlns="http://www.w3.org/2000/svg">
<path fill-rule="evenodd" clip-rule="evenodd" d="M12 21.1667C17.0626 21.1667 21.1667 17.0626 21.1667 12C21.1667 6.93739 17.0626 2.83333 12 2.83333C6.93739 2.83333 2.83333 6.93739 2.83333 12C2.83333 17.0626 6.93739 21.1667 12 21.1667ZM12 22C17.5228 22 22 17.5228 22 12C22 6.47715 17.5228 2 12 2C6.47715 2 2 6.47715 2 12C2 17.5228 6.47715 22 12 22ZM6.83607 11.9953C6.83607 13.3231 7.30328 14.5403 8.05328 15.5239L7.79508 15.7821C6.70082 14.8846 6 13.5321 6 11.9953C6 10.4584 6.70082 9.10592 7.79508 8.20837L8.05328 8.46657C7.30328 9.45018 6.83607 10.6674 6.83607 11.9953ZM17.1392 11.9953C17.1392 10.6674 16.7089 9.45018 15.922 8.46657L16.2048 8.20837C17.2991 9.10592 17.9999 10.4584 17.9999 11.9953C17.9999 13.5321 17.2991 14.8846 16.2048 15.7821L15.922 15.5239C16.7089 14.5403 17.1392 13.3231 17.1392 11.9953ZM8.59434 11.9953C8.59434 12.7822 8.82794 13.483 9.23368 14.0608L8.90171 14.3805C8.27467 13.7535 7.91811 12.9297 7.91811 11.9953C7.91811 11.0608 8.27467 10.2002 8.90171 9.61002L9.23368 9.9174C8.82794 10.5076 8.59434 11.2084 8.59434 11.9953ZM15.4056 11.9953C15.4056 11.2084 15.172 10.5076 14.7786 9.9174L15.086 9.61002C15.713 10.2002 16.0819 11.0608 16.0819 11.9953C16.0819 12.9297 15.713 13.7535 15.086 14.3805L14.7786 14.0608C15.172 13.483 15.4056 12.7822 15.4056 11.9953ZM13.9671 11.9952C13.9671 13.0895 13.0942 13.9625 11.9999 13.9625C10.9057 13.9625 10.0327 13.0895 10.0327 11.9952C10.0327 10.901 10.9057 10.028 11.9999 10.028C13.0942 10.028 13.9671 10.901 13.9671 11.9952ZM13.2296 11.9952C13.2296 11.319 12.664 10.7657 12.0001 10.7657C11.2993 10.7657 10.7706 11.319 10.7706 11.9952C10.7706 12.6715 11.2993 13.2247 12.0001 13.2247C12.664 13.2247 13.2296 12.6715 13.2296 11.9952Z" fill="#052962"/>
</svg>
