<svg width="24" height="24" viewBox="0 0 24 24" fill="none" xmlns="http://www.w3.org/2000/svg">
<path d="M6.125 12.25H13.875V13.875H6.125V12.25Z" fill="#052962"/>
<path d="M12.25 14.875H6.125V16.5H12.25V14.875Z" fill="#052962"/>
<path fill-rule="evenodd" clip-rule="evenodd" d="M4.375 3.62695L3.5 4.50195V19.5L4.375 20.375H16.125L17 19.5V4.50195L16.125 3.62695H4.375ZM5.125 9.5V5.25195H15.375V9.5H5.125ZM5.125 11.125V18.75H15.375V11.125H5.125Z" fill="#052962"/>
<path d="M18.7617 5.5H17.75L17.75 18.5L18.627 18.4902L19.375 17.7402L19.375 6.12695L18.7617 5.5Z" fill="#052962"/>
<path d="M21.0117 7.49219H20V16.5781L20.877 16.5684L21.625 15.8184V8.11914L21.0117 7.49219Z" fill="#052962"/>
</svg>
