<svg width="24" height="24" viewBox="0 0 24 24" fill="none" xmlns="http://www.w3.org/2000/svg">
<path d="M10.577 15.3026C10.037 18.1341 9.37742 20.8487 7.4236 22.2665C6.8205 17.987 8.30919 14.777 9.00032 11.3608C7.81778 9.37679 9.14222 5.38375 11.6282 6.36788C14.687 7.57801 8.9793 13.7443 12.8107 14.5143C16.8116 15.3184 18.4449 7.57276 15.9642 5.05395C12.3798 1.41698 5.53022 4.97117 6.37245 10.1783C6.57743 11.4515 7.89267 11.8378 6.89803 13.5945C4.6039 13.086 3.91934 11.2767 4.00738 8.86435C4.14928 4.92256 7.55499 2.15147 10.9712 1.76912C15.2914 1.28559 19.3462 3.35503 19.906 7.41903C20.5366 12.006 17.9561 16.9739 13.3363 16.6166C12.0841 16.5193 11.5585 15.8991 10.577 15.3026Z" fill="#052962" style="fill:#052962;fill:color(display-p3 0.0196 0.1608 0.3843);fill-opacity:1;"/>
</svg>
