<svg width="24" height="24" viewBox="0 0 24 24" fill="none" xmlns="http://www.w3.org/2000/svg">
<path fill-rule="evenodd" clip-rule="evenodd" d="M6.46901 19.3106L7.65861 14.8559L8.28295 14.2315C9.50545 13.8211 10.6712 13.6072 12.0246 13.6072C13.3781 13.6072 14.5482 13.8299 15.7663 14.2315L16.3907 14.8559H16.3863L17.5683 19.2822C19.7559 17.6069 21.1667 14.9682 21.1667 12C21.1667 6.93739 17.0626 2.83333 12 2.83333C6.93739 2.83333 2.83333 6.93739 2.83333 12C2.83333 14.9851 4.26016 17.6369 6.46901 19.3106ZM22 12C22 17.5228 17.5228 22 12 22C6.47715 22 2 17.5228 2 12C2 6.47715 6.47715 2 12 2C17.5228 2 22 6.47715 22 12ZM12.0334 12.3585C13.1598 12.3585 14.5045 11.0924 14.5045 9.53368C14.5045 7.975 13.592 7.0625 12.0334 7.0625C10.4747 7.0625 9.55782 7.975 9.55782 9.53368C9.55782 11.0924 11.0161 12.3585 12.0334 12.3585Z" fill="#052962"/>
</svg>
