<svg width="24" height="24" viewBox="0 0 24 24" fill="none" xmlns="http://www.w3.org/2000/svg">
<path fill-rule="evenodd" clip-rule="evenodd" d="M5.42262 4L3.94444 5.47908L4.15278 6.8782H3.49802L2 8.37726L4.03373 18.7308L5.94841 20.01H17.9722L19.8869 18.7308L22 8.37726L20.502 6.8782H19.8671L20.0556 5.46908L18.5774 4L5.42262 4ZM19.8472 8.4772L20.2738 8.89694L18.4683 17.7514L17.496 18.401H6.4246L5.4623 17.7614L3.72619 8.90693L4.15278 8.4772H19.8472ZM18.2599 6.8782L18.369 6.04872L17.9226 5.599H6.07738L5.63095 6.03873L5.75 6.8782H18.2599ZM7.50595 10.2461L7.80357 11.8451H16.127L16.4246 10.2461H7.50595ZM8.46825 13.2742L8.76587 14.8732H15.1647L15.4623 13.2742H8.46825Z" fill="#052962" style="fill:#052962;fill:color(display-p3 0.0196 0.1608 0.3843);fill-opacity:1;"/>
</svg>
