<svg width="24" height="24" viewBox="0 0 24 24" fill="none" xmlns="http://www.w3.org/2000/svg">
<path d="M20.8 11.253C20.8 6.42033 16.8797 2.5 12.043 2.5C7.20638 2.5 3.29004 6.42033 3.29004 11.253C3.29004 12.3247 3.48526 13.3486 3.83586 14.3008C3.51713 14.8945 3.33386 15.5757 3.33386 16.2968V16.5877C3.33386 18.9223 5.23427 20.8228 7.56893 20.8228H8.17053L9.39364 19.5996L9.6287 19.3646V13.5199L8.17053 12.0618H7.56893C6.58487 12.0618 5.68048 12.4004 4.95937 12.9662C4.82789 12.4164 4.74821 11.8427 4.74821 11.253C4.74821 7.23308 8.02312 3.95817 12.043 3.95817C16.063 3.95817 19.3379 7.23308 19.3379 11.253C19.3379 11.8387 19.2622 12.4044 19.1307 12.9462C18.4136 12.3925 17.5211 12.0578 16.545 12.0578H15.9435L14.4853 13.516V19.3606L14.7124 19.5877L15.9435 20.8188H16.545C18.8797 20.8188 20.7801 18.9184 20.7801 16.5837V16.2929C20.7801 15.5598 20.5929 14.8705 20.2622 14.269C20.6088 13.3287 20.7961 12.3128 20.7961 11.253H20.8Z" fill="#052962"/>
</svg>
