<svg width="24" height="24" viewBox="0 0 24 24" fill="none" xmlns="http://www.w3.org/2000/svg">
<path fill-rule="evenodd" clip-rule="evenodd" d="M9.16448 4.28497L12.1686 2.65949L11.8197 1.79004L8.32551 2.80147L9.16448 4.28497ZM2 11.915L2.90888 10.9983H12.1879L16.4245 4.13351C17.0472 3.05471 18.4739 2.67206 19.5799 3.30366C20.119 3.60794 20.5047 4.10585 20.6674 4.70057C20.83 5.29529 20.751 5.91768 20.4443 6.44785L17.6227 10.9983H21.0911L22 11.915C22 16.425 19.5278 20.3025 15.9968 21.9983H8.00318C4.46762 20.3025 2 16.425 2 11.915ZM3.64846 12.6233C3.87945 16.0955 5.79384 18.9812 8.39108 20.3733H15.6085C18.2031 18.9807 20.1201 16.0945 20.3515 12.6233H3.64846ZM11.8281 7.40455C12.4236 7.40455 12.9062 6.92186 12.9062 6.32643C12.9062 5.731 12.4236 5.2483 11.8281 5.2483C11.2327 5.2483 10.75 5.731 10.75 6.32643C10.75 6.92186 11.2327 7.40455 11.8281 7.40455ZM8.26229 8.68579C8.10349 8.4346 7.96756 8.17447 7.85593 7.93073C7.80118 7.81118 7.74473 7.68039 7.69192 7.55804L7.69187 7.55793L7.68876 7.55071C7.51788 7.1548 7.36432 6.80591 7.19625 6.53929C6.96775 6.17679 6.70816 5.94176 6.31957 5.84138C6.04876 5.77143 5.68175 5.7581 5.17416 5.85619L6.35652 7.02608L6.08025 7.39824L4.62717 6.54263C4.71967 7.08509 4.92713 7.47502 5.1822 7.76078C5.56758 8.19253 6.11421 8.44521 6.7135 8.57762C7.25904 8.69815 7.81665 8.71164 8.26229 8.68579ZM9.49362 9.79819C9.32436 9.83019 8.756 9.90252 8.48346 9.92362C7.94259 9.96549 7.19919 9.96508 6.44383 9.79819C5.69022 9.63168 4.86837 9.28632 4.24966 8.59316C3.61705 7.88443 3.27315 6.89789 3.33156 5.60702L3.35457 5.09852L3.83562 4.93213C4.96364 4.54196 5.87704 4.43604 6.6322 4.63111C7.42409 4.83567 7.9159 5.33684 8.25369 5.87272C8.48294 6.2364 8.67387 6.67874 8.83642 7.05536L8.83642 7.05537C8.89155 7.1831 8.94342 7.30327 8.99241 7.41025C9.21095 7.88742 9.49362 8.33351 9.78268 8.59316L9.49362 9.79819ZM19.0463 5.61887C19.1262 5.47217 19.1475 5.30337 19.0999 5.12924C19.051 4.95022 18.9404 4.80869 18.7812 4.71879L18.7776 4.71679L18.7741 4.71478C18.4302 4.51838 17.999 4.65637 17.8319 4.94588L17.8199 4.96659L14.0975 10.9983H15.7106L19.0463 5.61887Z" fill="#052962"/>
</svg>
