<svg width="24" height="24" viewBox="0 0 24 24" fill="none" xmlns="http://www.w3.org/2000/svg">
<path fill-rule="evenodd" clip-rule="evenodd" d="M12 22C17.5228 22 22 17.5228 22 12C22 6.47715 17.5228 2 12 2C6.47715 2 2 6.47715 2 12C2 17.5228 6.47715 22 12 22ZM8.05328 15.5256C7.30328 14.542 6.83607 13.3248 6.83607 11.9969C6.83607 10.669 7.30328 9.45183 8.05328 8.46822L7.79508 8.21002C6.70082 9.10756 6 10.46 6 11.9969C6 13.5338 6.70082 14.8863 7.79508 15.7838L8.05328 15.5256ZM15.9221 8.46822C16.709 9.45183 17.1393 10.669 17.1393 11.9969C17.1393 13.3248 16.709 14.542 15.9221 15.5256L16.2049 15.7838C17.2991 14.8863 18 13.5338 18 11.9969C18 10.46 17.2991 9.10756 16.2049 8.21002L15.9221 8.46822ZM9.2336 14.0625C8.82786 13.4846 8.59425 12.7838 8.59425 11.9969C8.59425 11.21 8.82786 10.5092 9.2336 9.91907L8.90163 9.61169C8.27458 10.2019 7.91802 11.0625 7.91802 11.9969C7.91802 12.9314 8.27458 13.7551 8.90163 14.3822L9.2336 14.0625ZM14.7788 9.91907C15.1722 10.5092 15.4058 11.21 15.4058 11.9969C15.4058 12.7838 15.1722 13.4846 14.7788 14.0625L15.0861 14.3822C15.7132 13.7551 16.082 12.9314 16.082 11.9969C16.082 11.0625 15.7132 10.2019 15.0861 9.61169L14.7788 9.91907ZM11.9999 10.0297C13.0941 10.0297 13.9671 10.9026 13.9671 11.9969C13.9671 13.0911 13.0941 13.9641 11.9999 13.9641C10.9056 13.9641 10.0327 13.0911 10.0327 11.9969C10.0327 10.9026 10.9056 10.0297 11.9999 10.0297Z" fill="#052962"/>
</svg>
