<svg width="24" height="24" viewBox="0 0 24 24" fill="none" xmlns="http://www.w3.org/2000/svg">
<path fill-rule="evenodd" clip-rule="evenodd" d="M18.5856 1.88477L20.4265 3.48363L19.7302 4.25087L17.5567 3.14912L18.5856 1.88477ZM6.97177 1.99151L8.0723 2.45021L7.80139 4.21907L6.10355 4.06274L6.97177 1.99151ZM18.0567 17.5538L19.2642 16.4607L20.1007 17.3944L19.1441 18.7676L18.0567 17.5538ZM22.3896 9.71032L20.0082 10.2109L20.3835 11.8003L22.5737 10.7323L22.3896 9.71032ZM14.7772 14.3789L14.664 13.9101L15.8402 13.7163C16.5056 15.0301 16.6518 16.1373 16.1156 16.6735C15.994 16.7952 15.8429 16.8817 15.6667 16.935L3.60055 21.2639L2.55225 20.2478L6.55345 7.91485C6.60378 7.70704 6.69665 7.53091 6.83485 7.39271C7.4653 6.76226 8.88501 7.07523 10.5018 8.06618L10.0332 9.07026C9.40614 8.82808 8.93739 8.69526 8.20302 8.62495C8.24208 8.83784 8.32804 9.1168 8.42682 9.33714C8.84696 10.2744 9.67818 11.4735 10.8565 12.6518C12.0349 13.8302 13.234 14.6614 14.1712 15.0815C14.3915 15.1803 14.7147 15.2981 14.871 15.3437C14.871 15.0078 14.8397 14.6562 14.7772 14.3789ZM4.61243 19.1711L12.8377 16.2275C11.8422 15.6739 10.7495 14.8429 9.70747 13.8009C8.68152 12.7749 7.86016 11.6999 7.30665 10.7169L4.61243 19.1711ZM18.1752 7.52745C17.3195 6.67349 15.9271 6.73202 15.1258 7.4687C13.6727 8.80464 14.8235 11.0545 16.0854 12.1093C17.0257 12.8953 18.2175 13.7105 20.0447 14.6138L20.666 13.2812C19.0406 12.4776 17.3932 11.6151 16.1973 10.2031C15.738 9.66078 15.6778 8.80773 16.0854 8.4687C16.493 8.12967 16.9417 8.31628 17.1571 8.5312C17.602 8.97514 17.0832 9.66739 16.7039 10.0078C16.7039 10.0078 16.8887 10.2304 17.1895 10.496C17.4903 10.7617 17.7586 10.9375 17.7586 10.9375C18.7508 9.94526 19.1829 8.53302 18.1752 7.52745ZM14.1669 11.3109L14.167 11.3109C14.35 11.2489 14.513 11.1938 14.6336 11.1562C14.6336 11.1562 14.7676 11.4101 14.9864 11.7148C15.2051 12.0195 15.4227 12.2431 15.4227 12.2431C14.6309 12.5659 13.7653 12.8081 12.9058 12.9416L12.6817 11.75C13.028 11.6961 13.671 11.4786 14.1669 11.3109ZM13.2073 8.06245C13.1016 9.08501 12.4518 10.0159 11.3948 11.375L10.4409 10.6261C11.3526 9.45391 11.6405 8.58233 11.7086 7.92325C11.7695 7.33441 11.6678 6.86628 11.5538 6.34159L11.5538 6.34158C11.5353 6.25598 11.5163 6.16889 11.4977 6.07951C11.3718 5.47419 11.2408 4.66063 11.8255 3.86674C12.3416 3.166 13.3257 2.61508 14.8646 2.04978L15.4249 3.57512C15.317 3.61428 15.1745 3.66185 15.0145 3.71526C14.5106 3.88343 13.8335 4.10942 13.5198 4.31245C12.833 4.7568 12.9628 5.61888 13.1022 6.54433C13.1784 7.05075 13.2575 7.57614 13.2073 8.06245ZM8.99417 6.24995C9.4429 6.24995 9.80667 5.88618 9.80667 5.43745C9.80667 4.98872 9.4429 4.62495 8.99417 4.62495C8.54544 4.62495 8.18167 4.98872 8.18167 5.43745C8.18167 5.88618 8.54544 6.24995 8.99417 6.24995ZM5.18167 7.06245C5.18167 7.51118 4.8179 7.87495 4.36917 7.87495C3.92044 7.87495 3.55667 7.51118 3.55667 7.06245C3.55667 6.61372 3.92044 6.24995 4.36917 6.24995C4.8179 6.24995 5.18167 6.61372 5.18167 7.06245ZM19.9942 7.24995C20.4429 7.24995 20.8067 6.88618 20.8067 6.43745C20.8067 5.98872 20.4429 5.62495 19.9942 5.62495C19.5454 5.62495 19.1817 5.98872 19.1817 6.43745C19.1817 6.88618 19.5454 7.24995 19.9942 7.24995Z" fill="#052962"/>
</svg>
