<svg width="24" height="24" viewBox="0 0 24 24" fill="none" xmlns="http://www.w3.org/2000/svg">
<path fill-rule="evenodd" clip-rule="evenodd" d="M7.81836 2C5.99107 2 4.50977 3.48131 4.50977 5.30859V18.5625L4.51173 18.5607C4.51042 18.5989 4.50977 18.6373 4.50977 18.6758C4.50977 20.5031 5.99107 21.9844 7.81836 21.9844H19.625L20.5001 21.123V20.3594H19.8751C18.9453 20.3594 18.1915 19.6056 18.1915 18.6758C18.1915 17.746 18.9453 16.9922 19.8751 16.9922H20.5001V2.87305L19.625 2H7.81836ZM16.5665 18.6758C16.5665 19.2906 16.7342 19.8662 17.0263 20.3594H7.81836C6.88854 20.3594 6.13477 19.6056 6.13477 18.6758C6.13477 17.746 6.88854 16.9922 7.81836 16.9922H17.0263C16.7342 17.4854 16.5665 18.061 16.5665 18.6758ZM18.8691 3.625H7.86914C7.05664 3.625 6.24414 4.375 6.24414 5.375V15.8125C6.24414 15.8125 6.86914 15.375 7.74414 15.375H18.8691V3.625Z" fill="#052962"/>
<path d="M7.86914 5.25H9.49414V13.75H7.86914V5.25Z" fill="#052962"/>
</svg>
