<svg width="24" height="24" viewBox="0 0 24 24" fill="none" xmlns="http://www.w3.org/2000/svg">
<path fill-rule="evenodd" clip-rule="evenodd" d="M22 12C22 17.5228 17.5228 22 12 22C6.47715 22 2 17.5228 2 12C2 6.47715 6.47715 2 12 2C17.5228 2 22 6.47715 22 12ZM12.0334 12.3585C13.1598 12.3585 14.5045 11.0924 14.5045 9.53368C14.5045 7.975 13.592 7.0625 12.0334 7.0625C10.4747 7.0625 9.55782 7.975 9.55782 9.53368C9.55782 11.0924 11.0161 12.3585 12.0334 12.3585ZM17.5721 19.2822C16.0285 20.4643 14.0982 21.1667 12.0038 21.1667C9.92625 21.1667 8.01013 20.4755 6.47281 19.3106L7.66241 14.8559L8.28675 14.2315C9.50924 13.8211 10.675 13.6072 12.0284 13.6072C13.3819 13.6072 14.552 13.8299 15.7701 14.2315L16.3945 14.8559H16.3901L17.5721 19.2822Z" fill="#052962"/>
</svg>
