<svg width="24" height="24" viewBox="0 0 24 24" fill="none" xmlns="http://www.w3.org/2000/svg">
<path fill-rule="evenodd" clip-rule="evenodd" d="M3.75 2.875H10.25L11.125 3.75V10.25L10.25 11.125H3.75L2.875 10.25V3.75L3.75 2.875ZM4.49999 9.5H9.5V4.5H4.49999V9.5ZM2.875 12.875H11.125V14.5H2.875V12.875ZM11.125 19.5H2.875V21.125H11.125V19.5ZM2.875 16.1875H11.125V17.8125H2.875V16.1875ZM20.25 12.875H13.75L12.875 13.75V20.25L13.75 21.125H20.25L21.125 20.25V13.75L20.25 12.875ZM19.5 19.5H14.5V14.5H19.5V19.5ZM13.75 2.875H20.25L21.125 3.75V10.25L20.25 11.125H13.75L12.875 10.25V3.75L13.75 2.875Z" fill="#052962"/>
</svg>
