<svg width="24" height="24" viewBox="0 0 24 24" fill="none" xmlns="http://www.w3.org/2000/svg">
<path fill-rule="evenodd" clip-rule="evenodd" d="M12 2C6.48 2 2 6.48 2 12C2 17.52 6.48 22 12 22C17.52 22 22 17.52 22 12C22 6.48 17.52 2 12 2ZM14.26 15.92H10.91V15.37L11.95 15.13L11.21 12.87H8.19L7.45 15.13L8.5 15.37V15.92H5.63V15.35L6.54 15.13L9.46 6.8H10.53L13.37 15.13L14.26 15.35V15.92ZM18.36 15.92H15.99V15.53L16.74 15.35L16.23 13.83H14.07V13.86L13.74 12.98L14.96 9.49H15.72L17.74 15.36L18.36 15.54V15.92ZM15.17 10.64L14.25 13.37H16.08L15.2 10.64H15.17ZM8.40002 12.3399L9.73002 8.43994H9.79002L11.06 12.3399H8.40002Z" fill="#052962" style="fill:#052962;fill:color(display-p3 0.0196 0.1608 0.3843);fill-opacity:1;"/>
</svg>
