<svg width="24" height="24" viewBox="0 0 24 24" fill="none" xmlns="http://www.w3.org/2000/svg">
<path d="M10.25 2.875H3.75L2.875 3.75V10.25L3.75 11.125H10.25L11.125 10.25V3.75L10.25 2.875Z" fill="#052962"/>
<path d="M11.125 12.875H2.875V14.5H11.125V12.875Z" fill="#052962"/>
<path d="M11.125 19.5H2.875V21.125H11.125V19.5Z" fill="#052962"/>
<path d="M11.125 16.1875H2.875V17.8125H11.125V16.1875Z" fill="#052962"/>
<path d="M20.25 12.875H13.75L12.875 13.75V20.25L13.75 21.125H20.25L21.125 20.25V13.75L20.25 12.875Z" fill="#052962"/>
<path d="M20.25 2.875H13.75L12.875 3.75V10.25L13.75 11.125H20.25L21.125 10.25V3.75L20.25 2.875Z" fill="#052962"/>
</svg>
