<svg width="24" height="24" viewBox="0 0 24 24" fill="none" xmlns="http://www.w3.org/2000/svg">
<path d="M16.97 1H15.97C15.97 1 13.675 10.185 13.595 10.495C13.52 10.805 13.675 11.12 13.92 11.255C14.01 11.305 14.45 11.56 14.97 11.855V22.5L15.47 23H16.47L16.97 22.5V1Z" fill="#052962"/>
<path d="M9.47 1V7H8.72L8.48 1H7.47L7.225 7H6.475V1H5.475C5.475 1 5.03 7.23499 5.01 7.495C4.985 7.85 5.045 8.03501 5.24 8.16501C5.88 8.59001 7.41 9.765 7.37 11L6.975 22.5L7.475 23H8.475L8.975 22.5L8.58 11.025C8.58 11.025 8.58 11.005 8.58 10.995C8.54 9.76999 10.07 8.59001 10.71 8.16501C10.91 8.03501 10.965 7.85 10.94 7.495L10.475 1H9.47Z" fill="#052962"/>
</svg>
