<svg width="24" height="24" viewBox="0 0 24 24" fill="none" xmlns="http://www.w3.org/2000/svg">
<path fill-rule="evenodd" clip-rule="evenodd" d="M3.69987 4.90431C2.90235 3.85613 3.10742 2.3659 4.1556 1.56837C5.20378 0.770846 6.69401 0.975924 7.49154 2.0241L3.69987 4.90887V4.90431ZM12 2.00001C6.47727 2.00001 2 6.47728 2 12C2 14.4341 2.86976 16.6652 4.31543 18.3993L2.45957 20.8872L3.09923 21.5268L5.58565 19.672C7.3219 21.1252 9.55882 22 12 22C14.4352 22 16.6671 21.1295 18.4015 19.6828L20.8735 21.5268L21.5132 20.8872L19.6702 18.4165C21.1245 16.68 22 14.4422 22 12C22 6.47728 17.5227 2.00001 12 2.00001ZM20.25 12C20.25 7.44876 16.5513 3.75001 12 3.75001C7.44875 3.75001 3.75 7.44876 3.75 12C3.75 16.5513 7.44875 20.25 12 20.25C16.5513 20.25 20.25 16.5513 20.25 12ZM17.9733 12.9297L12.067 13.5176L10.9095 12.3509L11.5931 5.1823H12.5045L13.138 11.7038L17.9733 12.0182V12.9297ZM19.942 1.56837C20.9902 2.3659 21.1953 3.85613 20.3978 4.90431V4.90887L16.6061 2.0241C17.4036 0.975924 18.8939 0.770846 19.942 1.56837Z" fill="#052962"/>
</svg>
