<svg width="24" height="24" viewBox="0 0 24 24" fill="none" xmlns="http://www.w3.org/2000/svg">
<path fill-rule="evenodd" clip-rule="evenodd" d="M21.1667 12C21.1667 17.0626 17.0626 21.1667 12 21.1667C6.93739 21.1667 2.83333 17.0626 2.83333 12C2.83333 6.93739 6.93739 2.83333 12 2.83333C17.0626 2.83333 21.1667 6.93739 21.1667 12ZM22 12C22 17.5228 17.5228 22 12 22C6.47715 22 2 17.5228 2 12C2 6.47715 6.47715 2 12 2C17.5228 2 22 6.47715 22 12ZM14.1671 9.6316L14.5934 9.21713L12.1658 6.78951H11.8342L9.41843 9.21713L9.83291 9.6316L11.5263 8.34082V12.4737H12.4737V8.34082L14.1671 9.6316ZM17.2105 11.0526H16.7368L16.2632 11.5263V15.3157H7.73687V11.5263L7.26319 11.0526H6.78951V15.7776L7.25135 16.2631H16.725L17.2105 15.7776V11.0526Z" fill="#052962"/>
</svg>
