<svg width="24" height="24" viewBox="0 0 24 24" fill="none" xmlns="http://www.w3.org/2000/svg">
<path d="M17 8.75004H14.5L12.995 7.25004H10.995L9.5 8.75004H7L6.5 9.25004V15.25L7 15.75H17L17.5 15.25V9.25004L17 8.75004ZM12 14.375C10.755 14.375 9.75 13.37 9.75 12.125C9.75 10.88 10.755 9.87504 12 9.87504C13.245 9.87504 14.25 10.88 14.25 12.125C14.25 13.37 13.24 14.375 12 14.375Z" fill="#052962"/>
<path fill-rule="evenodd" clip-rule="evenodd" d="M12 21.2239C17.0626 21.2239 21.1667 17.1199 21.1667 12.0573C21.1667 6.99464 17.0626 2.89058 12 2.89058C6.93739 2.89058 2.83333 6.99464 2.83333 12.0573C2.83333 17.1199 6.93739 21.2239 12 21.2239ZM12 22.0573C17.5228 22.0573 22 17.5801 22 12.0573C22 6.5344 17.5228 2.05725 12 2.05725C6.47715 2.05725 2 6.5344 2 12.0573C2 17.5801 6.47715 22.0573 12 22.0573Z" fill="#052962"/>
</svg>
