<svg width="24" height="24" viewBox="0 0 24 24" fill="none" xmlns="http://www.w3.org/2000/svg">
<path d="M12 22C17.5233 22 22 17.5233 22 12C22 6.47667 17.5233 2 12 2C6.47667 2 2 6.4775 2 12C2 17.5225 6.4775 22 12 22Z" fill="url(#paint0_linear_4220_6786)"/>
<path d="M6.52654 11.8941L12.3582 9.37828L16.089 8.01578C16.2272 8.01278 16.3627 8.0533 16.4765 8.13161C16.5557 8.20078 16.6065 8.29745 16.619 8.40245C16.6392 8.53253 16.6448 8.66446 16.6357 8.79578C16.4849 10.3766 15.834 14.2149 15.504 15.9858C15.364 16.7408 15.0874 16.9916 14.8207 17.0108C14.2399 17.0641 13.799 16.6274 13.2374 16.2558L11.0057 14.7566C10.0182 14.1066 10.6582 13.7508 11.2207 13.1641L13.9765 10.4724C13.9832 10.4416 13.9824 10.4091 13.974 10.3783C13.9657 10.3474 13.9507 10.3191 13.9299 10.2949C13.899 10.2758 13.8649 10.2633 13.8282 10.2599C13.7915 10.2566 13.7557 10.2616 13.7224 10.2749C13.634 10.2949 12.2282 11.2241 9.50487 13.0624C9.1057 13.3366 8.74404 13.4699 8.4207 13.4624C8.0632 13.4549 7.37654 13.2608 6.8657 13.0949C6.23654 12.8908 5.74154 12.7841 5.78487 12.4383C5.8057 12.2641 6.05237 12.0824 6.52654 11.8941Z" fill="white"/>
<defs>
<linearGradient id="paint0_linear_4220_6786" x1="11.8742" y1="1.81167" x2="11.8742" y2="21.9375" gradientUnits="userSpaceOnUse">
<stop stop-color="#2AABEE"/>
<stop offset="1" stop-color="#229ED9"/>
</linearGradient>
</defs>
</svg>
