<svg width="24" height="24" viewBox="0 0 24 24" fill="none" xmlns="http://www.w3.org/2000/svg">
<path fill-rule="evenodd" clip-rule="evenodd" d="M2 12C2 6.47728 6.47727 2.00001 12 2.00001C17.5227 2.00001 22 6.47728 22 12C22 14.4422 21.1245 16.68 19.6702 18.4165L21.5132 20.8872L20.8735 21.5268L18.4015 19.6828C16.6671 21.1295 14.4352 22 12 22C9.55882 22 7.3219 21.1252 5.58565 19.672L3.09923 21.5268L2.45957 20.8872L4.31543 18.3993C2.86976 16.6652 2 14.4341 2 12ZM17.9733 12.9297L12.067 13.5176L10.9095 12.3509L11.5931 5.1823H12.5045L13.138 11.7038L17.9733 12.0182V12.9297Z" fill="#052962"/>
<path d="M3.69987 4.90431C2.90235 3.85613 3.10742 2.3659 4.1556 1.56837C5.20378 0.770846 6.69401 0.975924 7.49154 2.0241L3.69987 4.90887V4.90431Z" fill="#052962"/>
<path d="M20.3978 4.90431C21.1953 3.85613 20.9902 2.3659 19.942 1.56837C18.8939 0.770846 17.4036 0.975924 16.6061 2.0241L20.3978 4.90887V4.90431Z" fill="#052962"/>
</svg>
