<svg width="24" height="24" viewBox="0 0 24 24" fill="none" xmlns="http://www.w3.org/2000/svg">
<path fill-rule="evenodd" clip-rule="evenodd" d="M21.1667 12.0573C21.1667 17.1199 17.0626 21.2239 12 21.2239C6.93739 21.2239 2.83333 17.1199 2.83333 12.0573C2.83333 6.99464 6.93739 2.89058 12 2.89058C17.0626 2.89058 21.1667 6.99464 21.1667 12.0573ZM22 12.0573C22 17.5801 17.5228 22.0573 12 22.0573C6.47715 22.0573 2 17.5801 2 12.0573C2 6.5344 6.47715 2.05725 12 2.05725C17.5228 2.05725 22 6.5344 22 12.0573ZM17.985 8.00504H5.995V9.50504L6.49 10.005H17.49L17.985 9.50504V8.00504ZM7.99002 12.01H15.99V13.505L15.49 14.01H8.49002L7.99002 13.505V12.01ZM10 16.005H13.975V17.505L13.49 18.005H10.49L10 17.505V16.005Z" fill="#052962"/>
</svg>
